<?xml version="1.0" encoding="iso-8859-1"?>
<!-- Generator: Adobe Illustrator 18.0.0, SVG Export Plug-In . SVG Version: 6.00 Build 0)  -->
<!DOCTYPE svg PUBLIC "-//W3C//DTD SVG 1.1//EN" "http://www.w3.org/Graphics/SVG/1.1/DTD/svg11.dtd">
<svg version="1.1" id="Capa_1" xmlns="http://www.w3.org/2000/svg" xmlns:xlink="http://www.w3.org/1999/xlink" x="0px" y="0px"
	 viewBox="0 0 295.666 295.666" style="enable-background:new 0 0 295.666 295.666;" xml:space="preserve">
<g>
	<path d="M280.666,8.619H77.373c-8.284,0-15,6.716-15,15v130.549l30-7.25v-108.3h173.293v130.402h-86.799
		c11.96,6.343,20.018,17.501,22.805,30h78.994c8.284,0,15-6.716,15-15V23.619C295.666,15.335,288.95,8.619,280.666,8.619z"/>
	<path d="M239.224,230.988l-78.964,24.086c-5.955-4.051-51.679-35.162-59-40.143c5.335-2.495,9.928-4.642,16.025-7.493
		l34.475,15.059c7.593,3.317,16.434-0.153,19.75-7.742c3.322-7.605-0.169-16.442-7.742-19.75l-46.191-20.177
		c-2.936-1.282-6.279-1.619-9.527-0.834c-7.031,1.699-54.178,13.092-60.335,14.58H15c-8.009,0-14.533,6.282-14.959,14.185L0,236.062
		v0c0,8.284,6.716,15,15,15h30.232c13.247,5.061,74.616,28.508,83.125,31.759c15.978,5.433,25.478,4.933,35.5,2.376
		c2.9-0.74,22.664-6.76,84.118-25.514c7.924-2.417,12.389-10.8,9.972-18.724S247.146,228.574,239.224,230.988z"/>
</g>
<g>
</g>
<g>
</g>
<g>
</g>
<g>
</g>
<g>
</g>
<g>
</g>
<g>
</g>
<g>
</g>
<g>
</g>
<g>
</g>
<g>
</g>
<g>
</g>
<g>
</g>
<g>
</g>
<g>
</g>
</svg>
